<svg xmlns="http://www.w3.org/2000/svg" width="239.635" height="50.378" viewBox="0 0 239.635 50.378"><g transform="translate(-555.256 -490.327)"><g transform="translate(665.296 490.327)"><path d="M730.972,494.547a4.92,4.92,0,0,0-.3-.862,2.609,2.609,0,0,0-.471-.708,2.275,2.275,0,0,0-.65-.48,1.9,1.9,0,0,0-.839-.179,2.079,2.079,0,0,0-1.928,1.148,6.753,6.753,0,0,0-.642,3.262,6.5,6.5,0,0,0,.667,3.254,2.106,2.106,0,0,0,1.92,1.139,2.162,2.162,0,0,0,1.521-.545,3.288,3.288,0,0,0,.886-1.473l1.693.586a6.033,6.033,0,0,1-.57,1.155,4.782,4.782,0,0,1-.854,1.017,4.017,4.017,0,0,1-1.163.724,3.919,3.919,0,0,1-1.512.277,3.863,3.863,0,0,1-3.286-1.684,5.85,5.85,0,0,1-.863-1.936,10.023,10.023,0,0,1-.293-2.514,10.187,10.187,0,0,1,.293-2.538,5.836,5.836,0,0,1,.863-1.945,3.917,3.917,0,0,1,1.391-1.236,4.025,4.025,0,0,1,1.9-.431,3.652,3.652,0,0,1,2.53.943,4.98,4.98,0,0,1,1.455,2.6Z" transform="translate(-724.285 -490.415)" fill="#001233"/><path d="M747.335,503.353v1.464h-7.207v-1.464h2.294V498.2h-2.294v-1.464h3.937v1.79a2.8,2.8,0,0,1,1.212-1.44,3.4,3.4,0,0,1,1.652-.431,5.667,5.667,0,0,1,.764.049,3.834,3.834,0,0,1,.732.179l-.342,1.676a4.417,4.417,0,0,0-.7-.187,4.262,4.262,0,0,0-.8-.074,2.207,2.207,0,0,0-1.1.26,2.259,2.259,0,0,0-.764.7,3,3,0,0,0-.439,1.042,5.713,5.713,0,0,0-.139,1.285v1.773Z" transform="translate(-729.814 -492.534)" fill="#001233"/><path d="M755.547,496.775h1.871l2.18,6.508,2.294-6.508h1.823l-4.556,12.072h-1.692l1.562-3.986h-.5Z" transform="translate(-735.195 -492.577)" fill="#001233"/><path d="M777.682,498.976a3.742,3.742,0,0,0-1.082-.618,3.451,3.451,0,0,0-1.212-.228,2.17,2.17,0,0,0-1.09.236.7.7,0,0,0-.406.626.516.516,0,0,0,.252.447,2.493,2.493,0,0,0,.74.3l1.774.456a3.762,3.762,0,0,1,1.6.813,1.823,1.823,0,0,1,.577,1.4,2.289,2.289,0,0,1-.886,1.822,3.341,3.341,0,0,1-1.066.546,4.749,4.749,0,0,1-1.448.2,4.9,4.9,0,0,1-3.546-1.253l1.139-1.2a2.723,2.723,0,0,0,1.033.708,3.56,3.56,0,0,0,1.342.252,2.356,2.356,0,0,0,1.253-.293.875.875,0,0,0,.471-.764q0-.537-.8-.765l-1.952-.488q-2.213-.57-2.213-2.132a2.083,2.083,0,0,1,.228-.976,2.247,2.247,0,0,1,.643-.757,3.036,3.036,0,0,1,.991-.488,4.511,4.511,0,0,1,1.277-.171,5.529,5.529,0,0,1,1.822.293,5.206,5.206,0,0,1,1.529.83Z" transform="translate(-740.899 -492.534)" fill="#001233"/><path d="M788.356,495.537l.228-2.31h1.448v2.31h3.644V497h-3.644v3.384a1.8,1.8,0,0,0,.448,1.375,1.512,1.512,0,0,0,1.066.415,1.837,1.837,0,0,0,1.049-.3,2.538,2.538,0,0,0,.708-.691l1.253,1.008a5.652,5.652,0,0,1-.464.537,3.491,3.491,0,0,1-.643.512,3.693,3.693,0,0,1-.87.39,3.85,3.85,0,0,1-1.147.155,3.011,3.011,0,0,1-2.277-.879,3.464,3.464,0,0,1-.846-2.505V497H786.16v-1.464Z" transform="translate(-745.879 -491.339)" fill="#001233"/><path d="M805.443,504.98a3.488,3.488,0,0,1-1.472-.317,3.705,3.705,0,0,1-1.2-.879,4.253,4.253,0,0,1-.814-1.326,4.639,4.639,0,0,1,0-3.286,4.193,4.193,0,0,1,.822-1.326,3.762,3.762,0,0,1,1.22-.878,3.611,3.611,0,0,1,1.514-.318,3.526,3.526,0,0,1,1.464.3,3.251,3.251,0,0,1,1.122.822v-1.042h1.724v8.086h-1.578v-1.139a2.246,2.246,0,0,1-.439.472,3.737,3.737,0,0,1-2.359.829Zm.309-6.7a2.3,2.3,0,0,0-.943.2,2.2,2.2,0,0,0-.748.537,2.536,2.536,0,0,0-.488.805,2.745,2.745,0,0,0-.18,1,2.85,2.85,0,0,0,.172,1,2.371,2.371,0,0,0,.488.806,2.32,2.32,0,0,0,.749.536,2.277,2.277,0,0,0,.951.2,2.226,2.226,0,0,0,.944-.2,2.338,2.338,0,0,0,1.228-1.342,2.9,2.9,0,0,0,.171-1.016v-.115a2.457,2.457,0,0,0-.667-1.691,2.335,2.335,0,0,0-.74-.521A2.241,2.241,0,0,0,805.752,498.277Z" transform="translate(-751.286 -492.534)" fill="#001233"/><path d="M818.022,501.114H820.9v-9.289h-2.8v-1.5h4.523v10.787h3.448v1.5h-8.052Z" transform="translate(-756.998 -490.327)" fill="#001233"/></g><g transform="translate(665.832 507.763)"><path d="M732.512,527.956v1.611h-7.4v-1.611h2.8V519.22H725.19v-1.611h7.256v1.611h-2.734v8.736Z" transform="translate(-725.109 -517.284)" fill="#001233"/><path d="M742.52,523.513v1.025a2.966,2.966,0,0,1,1.032-.814,3.028,3.028,0,0,1,1.326-.293,3.376,3.376,0,0,1,1.261.236,2.917,2.917,0,0,1,1.034.691,3.318,3.318,0,0,1,.691,1.1,4.013,4.013,0,0,1,.252,1.472V531.6h-1.725v-4.506a2.3,2.3,0,0,0-.447-1.464,1.641,1.641,0,0,0-1.375-.569,2.112,2.112,0,0,0-1.163.35,2.511,2.511,0,0,0-.854.9V531.6h-1.724v-8.085Z" transform="translate(-730.595 -519.316)" fill="#001233"/><path d="M757.369,522.319l.228-2.31h1.448v2.31h3.644v1.465h-3.644v3.383a1.8,1.8,0,0,0,.447,1.375,1.514,1.514,0,0,0,1.066.415,1.836,1.836,0,0,0,1.049-.3,2.539,2.539,0,0,0,.708-.691l1.252,1.008a5.622,5.622,0,0,1-.463.537,3.456,3.456,0,0,1-.643.512,3.668,3.668,0,0,1-.87.391,3.871,3.871,0,0,1-1.147.154,3.016,3.016,0,0,1-2.278-.878,3.47,3.47,0,0,1-.846-2.506v-3.4h-2.147v-1.465Z" transform="translate(-735.601 -518.122)" fill="#001233"/><path d="M775.349,530.249a2.913,2.913,0,0,0,1.122-.228,2.255,2.255,0,0,0,.96-.78l1.481.748a3.978,3.978,0,0,1-1.611,1.35,4.761,4.761,0,0,1-1.968.423,4.262,4.262,0,0,1-1.643-.309,3.779,3.779,0,0,1-1.285-.862,3.911,3.911,0,0,1-.838-1.326,4.6,4.6,0,0,1-.3-1.683,4.678,4.678,0,0,1,.284-1.643,3.866,3.866,0,0,1,.8-1.318,3.784,3.784,0,0,1,1.238-.87,3.846,3.846,0,0,1,1.578-.318,3.888,3.888,0,0,1,1.57.309,3.636,3.636,0,0,1,1.212.846,3.813,3.813,0,0,1,.781,1.261,4.366,4.366,0,0,1,.276,1.57c0,.152,0,.288-.007.407s-.014.238-.025.357h-5.922a2.16,2.16,0,0,0,2.294,2.066Zm-.146-5.3a2,2,0,0,0-1.44.537,2.107,2.107,0,0,0-.642,1.367H777.2a1.973,1.973,0,0,0-.179-.757,1.934,1.934,0,0,0-.431-.6,2.065,2.065,0,0,0-.618-.4A2,2,0,0,0,775.2,524.945Z" transform="translate(-741.217 -519.316)" fill="#001233"/><path d="M793.816,530.135V531.6h-7.207v-1.464H788.9v-5.157h-2.294v-1.465h3.937v1.79a2.792,2.792,0,0,1,1.212-1.439,3.4,3.4,0,0,1,1.652-.432,5.564,5.564,0,0,1,.764.049,3.793,3.793,0,0,1,.732.178l-.342,1.676a4.394,4.394,0,0,0-.7-.187,4.33,4.33,0,0,0-.8-.073,2.213,2.213,0,0,0-1.1.26,2.254,2.254,0,0,0-.764.7,3,3,0,0,0-.439,1.041,5.712,5.712,0,0,0-.139,1.285v1.773Z" transform="translate(-746.572 -519.316)" fill="#001233"/><path d="M804.494,523.513v1.025a2.964,2.964,0,0,1,1.033-.814,3.025,3.025,0,0,1,1.326-.293,3.371,3.371,0,0,1,1.26.236,2.919,2.919,0,0,1,1.034.691,3.31,3.31,0,0,1,.691,1.1,4.01,4.01,0,0,1,.252,1.472V531.6h-1.725v-4.506a2.3,2.3,0,0,0-.447-1.464,1.641,1.641,0,0,0-1.375-.569,2.113,2.113,0,0,0-1.163.35,2.515,2.515,0,0,0-.854.9V531.6H802.8v-8.085Z" transform="translate(-752.223 -519.316)" fill="#001233"/><path d="M820.937,531.762a3.486,3.486,0,0,1-1.472-.317,3.707,3.707,0,0,1-1.2-.878,4.254,4.254,0,0,1-.814-1.326,4.639,4.639,0,0,1,0-3.286,4.179,4.179,0,0,1,.822-1.326,3.757,3.757,0,0,1,1.22-.878,3.619,3.619,0,0,1,1.513-.318,3.511,3.511,0,0,1,1.464.3,3.241,3.241,0,0,1,1.123.822v-1.042h1.724V531.6h-1.579V530.46a2.212,2.212,0,0,1-.439.472,3.663,3.663,0,0,1-.634.415,3.738,3.738,0,0,1-.8.3A3.663,3.663,0,0,1,820.937,531.762Zm.309-6.7a2.3,2.3,0,0,0-.943.195,2.2,2.2,0,0,0-.748.537,2.529,2.529,0,0,0-.488.805,2.746,2.746,0,0,0-.18,1,2.867,2.867,0,0,0,.171,1,2.371,2.371,0,0,0,.488.805,2.324,2.324,0,0,0,.748.536,2.28,2.28,0,0,0,.952.2,2.229,2.229,0,0,0,.944-.2,2.345,2.345,0,0,0,1.228-1.342,2.919,2.919,0,0,0,.171-1.017v-.114a2.463,2.463,0,0,0-.668-1.692,2.34,2.34,0,0,0-.74-.521A2.25,2.25,0,0,0,821.246,525.06Z" transform="translate(-757.229 -519.316)" fill="#001233"/><path d="M834.837,522.319l.228-2.31h1.448v2.31h3.644v1.465h-3.644v3.383a1.8,1.8,0,0,0,.447,1.375,1.513,1.513,0,0,0,1.066.415,1.837,1.837,0,0,0,1.049-.3,2.539,2.539,0,0,0,.708-.691l1.253,1.008a5.641,5.641,0,0,1-.464.537,3.46,3.46,0,0,1-.643.512,3.67,3.67,0,0,1-.87.391,3.871,3.871,0,0,1-1.147.154,3.016,3.016,0,0,1-2.278-.878,3.467,3.467,0,0,1-.846-2.506v-3.4h-2.147v-1.465Z" transform="translate(-762.636 -518.122)" fill="#001233"/><path d="M849.334,528.164h2.993v-5.157h-2.993v-1.465h4.717v6.621h3.026v1.464h-7.743Zm3.839-8.086a1.069,1.069,0,0,1-.8-.333,1.107,1.107,0,0,1-.325-.805,1.138,1.138,0,0,1,.325-.814,1.059,1.059,0,0,1,.8-.341,1.165,1.165,0,0,1,1.155,1.155,1.084,1.084,0,0,1-.341.805A1.124,1.124,0,0,1,853.173,520.078Z" transform="translate(-768.462 -517.346)" fill="#001233"/><path d="M864.053,527.6a4.557,4.557,0,0,1,.285-1.619,3.982,3.982,0,0,1,.814-1.326,3.79,3.79,0,0,1,1.269-.9,4.1,4.1,0,0,1,1.667-.326,4.027,4.027,0,0,1,1.635.326,3.9,3.9,0,0,1,1.277.9,4.029,4.029,0,0,1,.829,1.326,4.618,4.618,0,0,1,0,3.237,4.033,4.033,0,0,1-.829,1.326,3.906,3.906,0,0,1-1.277.9,4.278,4.278,0,0,1-3.271,0,3.893,3.893,0,0,1-1.277-.9,4.01,4.01,0,0,1-.829-1.326A4.43,4.43,0,0,1,864.053,527.6Zm1.757,0a2.872,2.872,0,0,0,.164.976,2.489,2.489,0,0,0,.455.8,2.066,2.066,0,0,0,.716.536,2.377,2.377,0,0,0,1.887,0,2.077,2.077,0,0,0,.716-.536,2.509,2.509,0,0,0,.455-.8,2.995,2.995,0,0,0,0-1.952,2.508,2.508,0,0,0-.455-.8,2.176,2.176,0,0,0-.716-.545,2.153,2.153,0,0,0-.944-.2,2.112,2.112,0,0,0-.927.2,2.243,2.243,0,0,0-.724.545,2.406,2.406,0,0,0-.464.8A2.871,2.871,0,0,0,865.81,527.6Z" transform="translate(-773.599 -519.316)" fill="#001233"/><path d="M881.963,523.513v1.025a2.976,2.976,0,0,1,1.033-.814,3.027,3.027,0,0,1,1.326-.293,3.37,3.37,0,0,1,1.26.236,2.917,2.917,0,0,1,1.034.691,3.308,3.308,0,0,1,.691,1.1,4.01,4.01,0,0,1,.252,1.472V531.6h-1.724v-4.506a2.3,2.3,0,0,0-.448-1.464,1.641,1.641,0,0,0-1.375-.569,2.111,2.111,0,0,0-1.163.35,2.509,2.509,0,0,0-.854.9V531.6h-1.725v-8.085Z" transform="translate(-779.259 -519.316)" fill="#001233"/><path d="M898.406,531.762a3.485,3.485,0,0,1-1.472-.317,3.7,3.7,0,0,1-1.2-.878,4.248,4.248,0,0,1-.814-1.326,4.638,4.638,0,0,1,0-3.286,4.173,4.173,0,0,1,.822-1.326,3.756,3.756,0,0,1,1.22-.878,3.619,3.619,0,0,1,1.514-.318,3.509,3.509,0,0,1,1.464.3,3.243,3.243,0,0,1,1.123.822v-1.042h1.724V531.6H901.2V530.46a2.231,2.231,0,0,1-.439.472,3.669,3.669,0,0,1-.634.415,3.729,3.729,0,0,1-.8.3A3.66,3.66,0,0,1,898.406,531.762Zm.309-6.7a2.3,2.3,0,0,0-.943.195,2.194,2.194,0,0,0-.748.537,2.527,2.527,0,0,0-.488.805,2.743,2.743,0,0,0-.18,1,2.871,2.871,0,0,0,.171,1,2.372,2.372,0,0,0,.488.805,2.324,2.324,0,0,0,.748.536,2.279,2.279,0,0,0,.952.2,2.228,2.228,0,0,0,.944-.2,2.344,2.344,0,0,0,1.228-1.342,2.922,2.922,0,0,0,.171-1.017v-.114a2.465,2.465,0,0,0-.667-1.692,2.343,2.343,0,0,0-.74-.521A2.251,2.251,0,0,0,898.715,525.06Z" transform="translate(-784.265 -519.316)" fill="#001233"/><path d="M910.984,527.9h2.879v-9.289h-2.8v-1.5h4.522V527.9h3.448v1.5h-8.052Z" transform="translate(-789.978 -517.11)" fill="#001233"/></g><g transform="translate(665.182 524.338)"><path d="M732.831,543.071v1.692H729.4v10.266h-1.855V544.763h-3.432v-1.692Z" transform="translate(-724.111 -542.745)" fill="#001233"/><path d="M744.362,555.71a2.914,2.914,0,0,0,1.122-.228,2.249,2.249,0,0,0,.96-.781l1.481.748a3.983,3.983,0,0,1-1.611,1.351,4.768,4.768,0,0,1-1.969.423,4.253,4.253,0,0,1-1.642-.309,3.779,3.779,0,0,1-1.285-.862,3.9,3.9,0,0,1-.838-1.326,4.6,4.6,0,0,1-.3-1.684,4.678,4.678,0,0,1,.285-1.643,3.858,3.858,0,0,1,.8-1.318,3.78,3.78,0,0,1,1.237-.87,3.851,3.851,0,0,1,1.578-.318,3.89,3.89,0,0,1,1.57.309,3.635,3.635,0,0,1,1.211.846,3.81,3.81,0,0,1,.781,1.261,4.377,4.377,0,0,1,.276,1.569c0,.152,0,.288-.007.407s-.014.238-.025.358h-5.922a2.16,2.16,0,0,0,2.294,2.066Zm-.147-5.3a2,2,0,0,0-1.439.537,2.111,2.111,0,0,0-.642,1.366h4.084a1.97,1.97,0,0,0-.179-.756,1.939,1.939,0,0,0-.431-.6,2.052,2.052,0,0,0-.618-.4A1.989,1.989,0,0,0,744.215,550.406Z" transform="translate(-729.753 -544.777)" fill="#001233"/><path d="M755.722,553.107a4.57,4.57,0,0,1,.285-1.611,4.079,4.079,0,0,1,.813-1.342,3.918,3.918,0,0,1,1.278-.919,4.157,4.157,0,0,1,3.847.285,3.778,3.778,0,0,1,1.473,1.814l-1.61.537a2.081,2.081,0,0,0-.83-.976,2.311,2.311,0,0,0-2.2-.147,2.057,2.057,0,0,0-.716.57,2.522,2.522,0,0,0-.432.822,3.193,3.193,0,0,0-.146.968,2.755,2.755,0,0,0,.163.952,2.532,2.532,0,0,0,.456.789,2.077,2.077,0,0,0,.715.537,2.234,2.234,0,0,0,.944.195,2.878,2.878,0,0,0,1.3-.292,2.563,2.563,0,0,0,.976-.863l1.4.928a4.34,4.34,0,0,1-3.693,1.87,4.065,4.065,0,0,1-1.619-.317,3.9,3.9,0,0,1-1.277-.87,3.851,3.851,0,0,1-.83-1.31A4.443,4.443,0,0,1,755.722,553.107Z" transform="translate(-735.143 -544.777)" fill="#001233"/><path d="M773.515,542.571v5.174a2.7,2.7,0,0,1,1.008-.764,3,3,0,0,1,1.269-.294,3.518,3.518,0,0,1,1.334.244,3,3,0,0,1,1.042.7,3.176,3.176,0,0,1,.684,1.115,4.224,4.224,0,0,1,.243,1.472v4.637H777.37V550.38a2.416,2.416,0,0,0-.432-1.5,1.591,1.591,0,0,0-1.358-.57,2.237,2.237,0,0,0-1.187.35,2.418,2.418,0,0,0-.878.919v5.272H771.79V542.571Z" transform="translate(-740.75 -542.571)" fill="#001233"/><path d="M789,548.974V550a2.981,2.981,0,0,1,1.033-.813,3.028,3.028,0,0,1,1.326-.294,3.39,3.39,0,0,1,1.261.236,2.923,2.923,0,0,1,1.034.691,3.312,3.312,0,0,1,.691,1.1,4.012,4.012,0,0,1,.252,1.472v4.67h-1.724v-4.507a2.3,2.3,0,0,0-.448-1.464,1.639,1.639,0,0,0-1.375-.57,2.116,2.116,0,0,0-1.163.349,2.515,2.515,0,0,0-.854.9v5.287h-1.724v-8.086Z" transform="translate(-746.167 -544.777)" fill="#001233"/><path d="M802.078,553.058a4.57,4.57,0,0,1,.284-1.619,3.991,3.991,0,0,1,.814-1.325,3.8,3.8,0,0,1,1.269-.9,4.1,4.1,0,0,1,1.667-.326,4.026,4.026,0,0,1,1.635.326,3.908,3.908,0,0,1,1.277.9,4.014,4.014,0,0,1,.829,1.325,4.609,4.609,0,0,1,0,3.238,4.018,4.018,0,0,1-.829,1.326,3.907,3.907,0,0,1-1.277.9,4.277,4.277,0,0,1-3.27,0,3.873,3.873,0,0,1-1.277-.9,4.011,4.011,0,0,1-.83-1.326A4.427,4.427,0,0,1,802.078,553.058Zm1.757,0a2.87,2.87,0,0,0,.163.976,2.507,2.507,0,0,0,.455.8,2.077,2.077,0,0,0,.717.537,2.375,2.375,0,0,0,1.886,0,2.078,2.078,0,0,0,.716-.537,2.51,2.51,0,0,0,.456-.8,3.007,3.007,0,0,0,0-1.952,2.509,2.509,0,0,0-.456-.8,2.178,2.178,0,0,0-.716-.545,2.153,2.153,0,0,0-.944-.2,2.116,2.116,0,0,0-.927.2,2.263,2.263,0,0,0-.724.545,2.421,2.421,0,0,0-.463.8A2.87,2.87,0,0,0,803.835,553.058Z" transform="translate(-751.321 -544.777)" fill="#001233"/><path d="M818.022,553.358H820.9v-9.29h-2.8v-1.5h4.523v10.787h3.448v1.5h-8.052Z" transform="translate(-756.885 -542.571)" fill="#001233"/><path d="M833.065,553.058a4.566,4.566,0,0,1,.285-1.619,4,4,0,0,1,.814-1.325,3.792,3.792,0,0,1,1.27-.9,4.1,4.1,0,0,1,1.667-.326,4.024,4.024,0,0,1,1.635.326,3.906,3.906,0,0,1,1.277.9,4.029,4.029,0,0,1,.829,1.325,4.62,4.62,0,0,1,0,3.238,4.033,4.033,0,0,1-.829,1.326,3.905,3.905,0,0,1-1.277.9,4.277,4.277,0,0,1-3.27,0,3.875,3.875,0,0,1-1.277-.9,4.025,4.025,0,0,1-.83-1.326A4.442,4.442,0,0,1,833.065,553.058Zm1.757,0a2.887,2.887,0,0,0,.163.976,2.509,2.509,0,0,0,.455.8,2.077,2.077,0,0,0,.717.537,2.375,2.375,0,0,0,1.887,0,2.08,2.08,0,0,0,.716-.537,2.519,2.519,0,0,0,.455-.8,3.009,3.009,0,0,0,0-1.952,2.519,2.519,0,0,0-.455-.8,2.179,2.179,0,0,0-.716-.545,2.154,2.154,0,0,0-.944-.2,2.115,2.115,0,0,0-.927.2,2.269,2.269,0,0,0-.724.545,2.424,2.424,0,0,0-.463.8A2.886,2.886,0,0,0,834.822,553.058Z" transform="translate(-762.135 -544.777)" fill="#001233"/><path d="M848.259,553.058a4.853,4.853,0,0,1,.268-1.635,3.965,3.965,0,0,1,.765-1.318,3.587,3.587,0,0,1,2.741-1.213,3.239,3.239,0,0,1,1.391.3,3.064,3.064,0,0,1,1.066.805v-1.025h1.725v8.346a4.3,4.3,0,0,1-.285,1.619,3.343,3.343,0,0,1-.8,1.2,3.457,3.457,0,0,1-1.245.749,4.885,4.885,0,0,1-1.642.26,4.233,4.233,0,0,1-2.091-.52,3.773,3.773,0,0,1-1.456-1.416l1.431-.829a2.335,2.335,0,0,0,.911.829,2.554,2.554,0,0,0,1.2.309,2.3,2.3,0,0,0,1.659-.561,2.138,2.138,0,0,0,.586-1.618V555.97a2.463,2.463,0,0,1-1.049.928,3.136,3.136,0,0,1-1.375.325,3.579,3.579,0,0,1-1.529-.325,3.7,3.7,0,0,1-1.2-.887,4.11,4.11,0,0,1-.788-1.318A4.581,4.581,0,0,1,848.259,553.058Zm4-2.538a2.135,2.135,0,0,0-.951.2,2.185,2.185,0,0,0-.708.545,2.385,2.385,0,0,0-.447.805,3.084,3.084,0,0,0-.155.984,3.034,3.034,0,0,0,.155.968,2.475,2.475,0,0,0,.447.814,2.118,2.118,0,0,0,.716.553,2.193,2.193,0,0,0,.96.2,2.094,2.094,0,0,0,1.668-.773,2.573,2.573,0,0,0,.439-.805,2.934,2.934,0,0,0,.154-.943v-.114a2.654,2.654,0,0,0-.163-.927,2.561,2.561,0,0,0-.455-.781,2.088,2.088,0,0,0-.717-.537A2.232,2.232,0,0,0,852.261,550.521Z" transform="translate(-767.437 -544.777)" fill="#001233"/><path d="M864,549.018h1.871l2.18,6.507,2.294-6.507h1.822l-4.555,12.072h-1.693l1.562-3.985h-.505Z" transform="translate(-772.932 -544.821)" fill="#001233"/></g><g transform="translate(555.256 490.529)"><g transform="translate(68.214)"><path d="M666.187,504.423a8.8,8.8,0,0,0,8.8-8.8v-4.984h-8.8v13.785h-6.15v7.848h6.15Z" transform="translate(-660.037 -490.637)" fill="#001233"/></g><g transform="translate(83.166 13.786)"><path d="M692.867,511.813h-2.015a7.847,7.847,0,0,0-7.847,7.847h9.861Z" transform="translate(-683.005 -511.813)" fill="#001233"/></g><g transform="translate(74.363 21.633)"><path d="M678.286,542.212V523.867h-8.8v26.3h19.406v-7.953Z" transform="translate(-669.484 -523.867)" fill="#001233"/></g><g transform="translate(41.416)"><path d="M618.874,490.637v7.955h10.6V538.57h8.8V510.041a19.4,19.4,0,0,0-19.4-19.4Z" transform="translate(-618.874 -490.637)" fill="#001233"/></g><g transform="translate(0 0.004)"><path d="M563.77,492.387A15.2,15.2,0,0,0,576,498.555h11.3v-7.912H555.272v.21h-.016v33.219a14.443,14.443,0,0,0,14.456,14.443l18.165-.016v-7.911H563.77Z" transform="translate(-555.256 -490.643)" fill="#001233"/></g></g></g></svg>